<?xml version="1.0" standalone="no"?>
<!DOCTYPE svg PUBLIC "-//W3C//DTD SVG 20010904//EN"
 "http://www.w3.org/TR/2001/REC-SVG-20010904/DTD/svg10.dtd">
<svg version="1.0" xmlns="http://www.w3.org/2000/svg"
 width="512.000000pt" height="512.000000pt" viewBox="0 0 512.000000 512.000000"
 preserveAspectRatio="xMidYMid meet">
<metadata>
Created by potrace 1.14, written by Peter Selinger 2001-2017
</metadata>
<g transform="translate(0.000000,512.000000) scale(0.100000,-0.100000)"
fill="#000000" stroke="none">
<path d="M0 2560 l0 -2560 2560 0 2560 0 0 2560 0 2560 -2560 0 -2560 0 0
-2560z m3818 1588 c201 -62 362 -219 428 -418 18 -52 19 -119 22 -1135 2 -957
1 -1089 -13 -1160 -43 -214 -196 -386 -412 -462 l-78 -28 -1200 0 c-1136 0
-1203 1 -1259 18 -183 57 -326 182 -401 351 -55 125 -56 140 -52 1287 3 1173
-2 1086 73 1239 83 167 274 299 469 323 17 3 557 4 1200 3 1051 -2 1175 -3
1223 -18z"/>
<path d="M1669 3117 c-59 -39 -69 -73 -69 -229 l0 -138 -132 0 c-154 0 -203
-16 -238 -72 -28 -47 -29 -189 0 -235 34 -57 68 -67 228 -71 l142 -4 0 -136
c0 -123 3 -141 23 -176 32 -56 76 -76 167 -76 86 0 127 19 160 72 17 29 20 51
20 175 l0 141 143 4 c158 4 188 13 229 70 20 29 23 45 23 120 0 94 -11 119
-69 162 -24 19 -44 21 -177 24 l-149 3 0 142 c0 159 -10 189 -72 227 -50 30
-182 29 -229 -3z"/>
<path d="M3295 3101 c-77 -34 -123 -116 -111 -195 15 -93 90 -156 186 -156 61
0 96 17 138 64 42 48 56 103 41 159 -31 118 -148 177 -254 128z"/>
<path d="M2925 2731 c-48 -22 -69 -44 -90 -94 -52 -126 35 -257 172 -257 110
0 193 94 180 206 -14 124 -147 198 -262 145z"/>
<path d="M3671 2739 c-124 -49 -160 -202 -72 -303 48 -55 151 -72 220 -36 133
68 132 264 -1 329 -46 22 -107 26 -147 10z"/>
<path d="M3295 2367 c-42 -19 -92 -79 -104 -124 -13 -47 -13 -49 -1 -95 30
-106 152 -166 252 -123 64 26 118 109 118 181 0 37 -49 118 -86 143 -43 30
-133 39 -179 18z"/>
</g>
</svg>
