<svg 
 xmlns="http://www.w3.org/2000/svg"
 xmlns:xlink="http://www.w3.org/1999/xlink"
 width="1832px" height="1682px">
<path fill-rule="evenodd"  fill="rgb(192, 192, 192)"
 d="M397.000,117.984 L1434.000,117.984 C1650.496,117.984 1826.000,293.489 1826.000,509.984 L1826.000,1285.000 C1826.000,1501.496 1650.496,1676.1000 1434.000,1676.1000 L397.000,1676.1000 C180.504,1676.1000 5.000,1501.496 5.000,1285.000 L5.000,509.984 C5.000,293.489 180.504,117.984 397.000,117.984 Z"/>
<path fill-rule="evenodd"  fill="rgb(240, 240, 240)"
 d="M392.1000,5.000 L1437.1000,5.000 C1652.286,5.000 1826.000,178.714 1826.000,392.1000 L1826.000,1179.388 C1826.000,1393.675 1652.286,1567.388 1437.1000,1567.388 L392.1000,1567.388 C178.714,1567.388 5.000,1393.675 5.000,1179.388 L5.000,392.1000 C5.000,178.714 178.714,5.000 392.1000,5.000 Z"/>
<path fill-rule="evenodd"  fill="rgb(79, 52, 196)"
 d="M193.001,816.561 L193.001,807.260 C193.001,755.345 235.087,713.260 287.001,713.260 L717.804,713.260 C769.719,713.260 811.804,755.345 811.804,807.260 L811.804,816.561 C811.804,868.476 769.719,910.561 717.804,910.561 L287.001,910.561 C235.087,910.561 193.001,868.476 193.001,816.561 Z"/>
<path fill-rule="evenodd"  fill="rgb(79, 52, 196)"
 d="M497.765,502.469 L507.040,502.469 C558.955,502.469 601.040,544.554 601.040,596.468 L601.040,1027.353 C601.040,1079.268 558.955,1121.353 507.040,1121.353 L497.765,1121.353 C445.850,1121.353 403.765,1079.268 403.765,1027.353 L403.765,596.468 C403.765,544.554 445.850,502.469 497.765,502.469 Z"/>
<path fill-rule="evenodd"  fill="rgb(79, 52, 196)"
 d="M1345.449,907.332 C1400.082,907.332 1444.371,951.626 1444.371,1006.267 C1444.371,1060.907 1400.082,1105.201 1345.449,1105.201 C1290.816,1105.201 1246.527,1060.907 1246.527,1006.267 C1246.527,951.626 1290.816,907.332 1345.449,907.332 Z"/>
<path fill-rule="evenodd"  fill="rgb(79, 52, 196)"
 d="M1539.920,711.299 C1594.553,711.299 1638.842,755.594 1638.842,810.234 C1638.842,864.874 1594.553,909.169 1539.920,909.169 C1485.287,909.169 1440.998,864.874 1440.998,810.234 C1440.998,755.594 1485.287,711.299 1539.920,711.299 Z"/>
<path fill-rule="evenodd"  fill="rgb(79, 52, 196)"
 d="M1150.691,711.149 C1205.324,711.149 1249.613,755.444 1249.613,810.084 C1249.613,864.724 1205.324,909.018 1150.691,909.018 C1096.058,909.018 1051.769,864.724 1051.769,810.084 C1051.769,755.444 1096.058,711.149 1150.691,711.149 Z"/>
<path fill-rule="evenodd"  fill="rgb(79, 52, 196)"
 d="M1345.162,515.116 C1399.795,515.116 1444.084,559.411 1444.084,614.051 C1444.084,668.691 1399.795,712.986 1345.162,712.986 C1290.529,712.986 1246.241,668.691 1246.241,614.051 C1246.241,559.411 1290.529,515.116 1345.162,515.116 Z"/>
</svg>